<svg viewBox="0 0 512 512" width="100%" height="100%" pointer-events="none" xmlns="http://www.w3.org/2000/svg"><path fill="currentColor" d="M337.179 86.713C195.049 104.138 130.417 116.483 8 187.447l1.136 3.223 9.729.099c-.892 9.798-2.447 34.016-.461 70.433-13.583 39.31-.345 66.015 12.087 95.065 1.97-30.216 1.768-63.31-7.512-96.246-1.943-36.172-.347-59.956.53-69.207l81.152.775a371 371 0 0 0 2.403 47.57l.006.002q-1.702 9.985-1.703 21.161v164.964h79.367V269.517c-.013-8.703.945-16.233 2.858-22.611 20.455-3.355 39.75-10.883 56.958-22.184 13.423 6.674 20.14 21.6 20.14 44.795v155.77h79.353v-155.77q.086-48.862 40.373-48.847 40.287.014 40.287 48.847v155.77H504V260.322q-.016-50.991-35.412-77.164-31.136-23.38-84.229-23.38-58.072-.001-80.03 27.61c-3.877-4.202-8.25-7.917-13.113-11.16-10.753-12.04-31.792-28.45-31.792-28.45l78.763-57.555z"/></svg>